<?xml version="1.0" ?><!DOCTYPE svg  PUBLIC '-//W3C//DTD SVG 1.1//EN'  'http://www.w3.org/Graphics/SVG/1.1/DTD/svg11.dtd'><svg enable-background="new 0 0 512 512" id="Layer_1" version="1.1" viewBox="0 0 512 512" xml:space="preserve" xmlns="http://www.w3.org/2000/svg" xmlns:xlink="http://www.w3.org/1999/xlink"><g><path d="M256.9,507.8C119,507.8,8,395.4,8.5,255.2C9.1,117.6,120.3,4.7,259.9,6.2   c136.7,1.5,246.9,113.9,245.6,253.3C504.2,396.4,394.4,507.6,256.9,507.8z M257.4,25.8C133,25.3,29.4,126.6,28.1,254.4   c-1.3,130.1,102.7,232.7,226.8,233.8c125.6,1.1,230.3-100.6,231-228.9C486.6,129.6,384.4,25.8,257.4,25.8z" fill="#0F8585"/><path d="M326.5,271.6c-15-6.8-29.2-13.3-43.5-19.6c-2.9-1.3-4.7-3.1-6.1-6.1c-9.4-20.7-19-41.4-28.6-62.1   c-0.5-1-0.9-2.1-1.6-3.8c14.1,4.2,27.5,8.2,40.9,12.3c38,11.6,75.9,23.3,114,34.9c3.7,1.1,5.2,2.6,5.2,6.8   c-0.3,22.8-0.2,45.7,0,68.5c0,3.5-1.1,5.3-4.1,7.1c-58.2,34.6-116.4,69.2-174.5,104c-2.8,1.7-4.7,1.8-7.5-0.2   c-21.7-15.4-43.6-30.7-65.5-45.8c-2.7-1.8-3.5-3.8-3.5-7c0.1-86,0.1-172,0-258c0-4.9,1.4-5,5.3-3.6c21.2,7.4,42.4,14.7,63.8,21.7   c3.3,1.1,4.2,2.6,4.2,6c0.2,64.2,0.6,128.3,0.9,192.5c0,5.6,0,5.7,5,3c30.6-16.1,61.3-32.2,91.9-48.3   C323.8,273.4,324.8,272.7,326.5,271.6z" fill="#0D8484"/></g></svg>